<svg width="24" height="24" viewBox="0 0 24 24" fill="none" xmlns="http://www.w3.org/2000/svg">
<g id="Frame 9" clip-path="url(#clip0_161_1796)">
<path id="Union" fill-rule="evenodd" clip-rule="evenodd" d="M14.9585 7.40978C17.2471 9.80627 17.1596 13.6042 14.7631 15.8928C12.3666 18.1814 8.56865 18.0939 6.28008 15.6974C3.99152 13.3009 4.079 9.50295 6.47549 7.21438C8.87197 4.92582 12.67 5.0133 14.9585 7.40978ZM16.8248 16.6038C19.339 13.5225 19.2225 8.9789 16.4049 6.02851C13.3535 2.8332 8.28953 2.71655 5.09422 5.76797C1.89891 8.8194 1.78226 13.8834 4.83368 17.0787C7.65121 20.0291 12.1846 20.3547 15.3784 17.9851L17.4931 20.1995C17.8745 20.5989 18.5075 20.6135 18.9069 20.232C19.3063 19.8506 19.3209 19.2176 18.9395 18.8182L16.8248 16.6038Z" fill="#B2B2B2"/>
</g>
<defs>
<clipPath id="clip0_161_1796">
<rect width="24" height="24" fill="white"/>
</clipPath>
</defs>
</svg>
